<?xml version="1.0" encoding="UTF-8"?>
<!DOCTYPE svg PUBLIC "-//W3C//DTD SVG 1.0//EN" "http://www.w3.org/TR/2001/REC-SVG-20010904/DTD/svg10.dtd">
<svg fill-opacity="1" xmlns:xlink="http://www.w3.org/1999/xlink" color-rendering="auto" color-interpolation="auto" text-rendering="auto" stroke="black" stroke-linecap="square" width="21.145833333333332in" stroke-miterlimit="10" shape-rendering="auto" stroke-opacity="1" fill="black" stroke-dasharray="none" font-weight="normal" stroke-width="1" viewBox="0 0 2030 2096" height="21.833333333333332in" xmlns="http://www.w3.org/2000/svg" font-family="'Dialog'" font-style="normal" stroke-linejoin="miter" font-size="12" stroke-dashoffset="0" image-rendering="auto"><!--Generated by the Batik Graphics2D SVG Generator
 This is MagicDraw diagram.--><defs id="genericDefs"/><g><defs id="defs1"><linearGradient x1="196" gradientUnits="userSpaceOnUse" x2="423" y1="75" y2="164" id="linearGradient1" spreadMethod="pad"><stop stop-opacity="1" stop-color="rgb(194,227,211)" offset="0%"/><stop stop-opacity="1" stop-color="white" offset="100%"/></linearGradient><linearGradient x1="770" gradientUnits="userSpaceOnUse" x2="980" y1="372" y2="461" id="linearGradient2" spreadMethod="pad"><stop stop-opacity="1" stop-color="rgb(194,227,211)" offset="0%"/><stop stop-opacity="1" stop-color="white" offset="100%"/></linearGradient><linearGradient x1="616" gradientUnits="userSpaceOnUse" x2="751" y1="75" y2="164" id="linearGradient3" spreadMethod="pad"><stop stop-opacity="1" stop-color="rgb(194,227,211)" offset="0%"/><stop stop-opacity="1" stop-color="white" offset="100%"/></linearGradient><linearGradient x1="469" gradientUnits="userSpaceOnUse" x2="597" y1="75" y2="164" id="linearGradient4" spreadMethod="pad"><stop stop-opacity="1" stop-color="rgb(194,227,211)" offset="0%"/><stop stop-opacity="1" stop-color="white" offset="100%"/></linearGradient><clipPath clipPathUnits="userSpaceOnUse" id="clipPath1"><path d="M0 -5 L2030 -5 L2030 2096 L0 2096 L0 -5 Z"/></clipPath><clipPath clipPathUnits="userSpaceOnUse" id="clipPath2"><path d="M-13.805 565.4358 L342.1243 -363.7248 L1302.1012 4.0092 L946.1719 933.1698 L-13.805 565.4358 Z"/></clipPath><clipPath clipPathUnits="userSpaceOnUse" id="clipPath3"><path d="M0 -3 L1015 -3 L1015 1048 L0 1048 L0 -3 Z"/></clipPath><clipPath clipPathUnits="userSpaceOnUse" id="clipPath4"><path d="M-772 -70 L1258 -70 L1258 2032 L-772 2032 L-772 -70 Z"/></clipPath></defs><g fill="white" stroke="white"><rect x="0" width="2030" height="2101" y="-5" clip-path="url(#clipPath1)" stroke="none"/></g><g text-rendering="geometricPrecision" font-size="30" font-family="'Noto Sans'" transform="matrix(2,0,0,2,-0,0)" stroke-linecap="butt" stroke-linejoin="round"><rect x="199" y="78" clip-path="url(#clipPath3)" fill="rgb(178,178,178)" width="227" height="89" stroke="none"/><rect x="196" y="75" clip-path="url(#clipPath3)" fill="url(#linearGradient1)" width="227" height="89" stroke="none"/><rect x="196" y="75" clip-path="url(#clipPath3)" fill="none" width="227" height="89" stroke="rgb(61,102,82)"/><text x="272" space="preserve" y="110.07" clip-path="url(#clipPath3)" font-weight="bold" stroke="none">ENV -</text><text x="204" space="preserve" y="150.9299" clip-path="url(#clipPath3)" font-weight="bold" stroke="none">WebExtension</text></g><g stroke-linecap="butt" font-size="30" transform="matrix(2,0,0,2,-0,0)" fill="rgb(61,102,82)" text-rendering="geometricPrecision" font-family="'Noto Sans'" stroke-linejoin="round" stroke-dasharray="6,4" stroke="rgb(61,102,82)" font-weight="bold" stroke-miterlimit="7"><line y2="1013" fill="none" x1="309" clip-path="url(#clipPath3)" x2="309" y1="164"/></g><g stroke-linecap="butt" font-size="30" transform="matrix(2,0,0,2,-0,0)" fill="rgb(194,227,211)" text-rendering="geometricPrecision" font-family="'Noto Sans'" stroke-linejoin="round" stroke="rgb(194,227,211)" font-weight="bold"><rect x="304" width="10" height="14" y="734" clip-path="url(#clipPath3)" stroke="none"/><rect x="304" y="734" clip-path="url(#clipPath3)" fill="none" width="10" height="14" stroke="rgb(61,102,82)"/><rect x="304" y="748" clip-path="url(#clipPath3)" fill="none" width="10" height="1" stroke="rgb(61,102,82)"/><rect x="304" width="10" height="341" y="221" clip-path="url(#clipPath3)" stroke="none"/><rect x="304" y="221" clip-path="url(#clipPath3)" fill="none" width="10" height="341" stroke="rgb(61,102,82)"/><rect x="304" y="562" clip-path="url(#clipPath3)" fill="none" width="10" height="1" stroke="rgb(61,102,82)"/><rect x="304" width="10" height="50" y="938" clip-path="url(#clipPath3)" stroke="none"/><rect x="304" y="938" clip-path="url(#clipPath3)" fill="none" width="10" height="50" stroke="rgb(61,102,82)"/><rect x="773" y="375" clip-path="url(#clipPath3)" fill="rgb(178,178,178)" width="210" height="89" stroke="none"/><rect x="770" y="372" clip-path="url(#clipPath3)" fill="url(#linearGradient2)" width="210" height="89" stroke="none"/><rect x="770" y="372" clip-path="url(#clipPath3)" fill="none" width="210" height="89" stroke="rgb(61,102,82)"/><text fill="black" x="841.5" space="preserve" y="407.07" clip-path="url(#clipPath3)" stroke="none">ENV-</text><text fill="black" x="777.5" space="preserve" y="447.93" clip-path="url(#clipPath3)" stroke="none">Web Content</text></g><g stroke-linecap="butt" font-size="30" transform="matrix(2,0,0,2,-0,0)" fill="rgb(61,102,82)" text-rendering="geometricPrecision" font-family="'Noto Sans'" stroke-linejoin="round" stroke-dasharray="6,4" stroke="rgb(61,102,82)" font-weight="bold" stroke-miterlimit="7"><line y2="938" fill="none" x1="875" clip-path="url(#clipPath3)" x2="875" y1="461"/><line clip-path="url(#clipPath3)" fill="none" x1="865" x2="885" y1="928" y2="948" stroke-dasharray="none" stroke-miterlimit="10"/><line clip-path="url(#clipPath3)" fill="none" x1="865" x2="885" y1="948" y2="928" stroke-dasharray="none" stroke-miterlimit="10"/><line clip-path="url(#clipPath3)" fill="none" x1="865" x2="884" y1="929" y2="948" stroke-dasharray="none" stroke-miterlimit="10"/><line clip-path="url(#clipPath3)" fill="none" x1="866" x2="885" y1="948" y2="929" stroke-dasharray="none" stroke-miterlimit="10"/></g><g stroke-linecap="butt" font-size="30" transform="matrix(2,0,0,2,-0,0)" fill="rgb(194,227,211)" text-rendering="geometricPrecision" font-family="'Noto Sans'" stroke-linejoin="round" stroke="rgb(194,227,211)" font-weight="bold"><rect x="870" width="10" height="413" y="511" clip-path="url(#clipPath3)" stroke="none"/><rect x="870" y="511" clip-path="url(#clipPath3)" fill="none" width="10" height="413" stroke="rgb(61,102,82)"/><rect x="870" y="924" clip-path="url(#clipPath3)" fill="none" width="10" height="1" stroke="rgb(61,102,82)"/><rect x="619" y="78" clip-path="url(#clipPath3)" fill="rgb(178,178,178)" width="135" height="89" stroke="none"/><rect x="616" y="75" clip-path="url(#clipPath3)" fill="url(#linearGradient3)" width="135" height="89" stroke="none"/><rect x="616" y="75" clip-path="url(#clipPath3)" fill="none" width="135" height="89" stroke="rgb(61,102,82)"/><text fill="black" x="624" space="preserve" y="110.07" clip-path="url(#clipPath3)" stroke="none">Content</text><text fill="black" x="628" space="preserve" y="150.9299" clip-path="url(#clipPath3)" stroke="none">Process</text></g><g stroke-linecap="butt" font-size="30" transform="matrix(2,0,0,2,-0,0)" fill="rgb(61,102,82)" text-rendering="geometricPrecision" font-family="'Noto Sans'" stroke-linejoin="round" stroke-dasharray="6,4" stroke="rgb(61,102,82)" font-weight="bold" stroke-miterlimit="7"><line y2="1013" fill="none" x1="683" clip-path="url(#clipPath3)" x2="683" y1="164"/></g><g stroke-linecap="butt" font-size="30" transform="matrix(2,0,0,2,-0,0)" fill="rgb(194,227,211)" text-rendering="geometricPrecision" font-family="'Noto Sans'" stroke-linejoin="round" stroke="rgb(194,227,211)" font-weight="bold"><rect x="678" width="10" height="288" y="595" clip-path="url(#clipPath3)" stroke="none"/><rect x="678" y="595" clip-path="url(#clipPath3)" fill="none" width="10" height="288" stroke="rgb(61,102,82)"/><rect x="678" y="883" clip-path="url(#clipPath3)" fill="none" width="10" height="1" stroke="rgb(61,102,82)"/><rect x="472" y="78" clip-path="url(#clipPath3)" fill="rgb(178,178,178)" width="128" height="89" stroke="none"/><rect x="469" y="75" clip-path="url(#clipPath3)" fill="url(#linearGradient4)" width="128" height="89" stroke="none"/><rect x="469" y="75" clip-path="url(#clipPath3)" fill="none" width="128" height="89" stroke="rgb(61,102,82)"/><text fill="black" x="498" space="preserve" y="110.07" clip-path="url(#clipPath3)" stroke="none">Main</text><text fill="black" x="477.5" space="preserve" y="150.9299" clip-path="url(#clipPath3)" stroke="none">Process</text></g><g stroke-linecap="butt" font-size="30" transform="matrix(2,0,0,2,-0,0)" fill="rgb(61,102,82)" text-rendering="geometricPrecision" font-family="'Noto Sans'" stroke-linejoin="round" stroke-dasharray="6,4" stroke="rgb(61,102,82)" font-weight="bold" stroke-miterlimit="7"><line y2="1013" fill="none" x1="533" clip-path="url(#clipPath3)" x2="533" y1="164"/></g><g stroke-linecap="butt" font-size="30" transform="matrix(2,0,0,2,-0,0)" fill="rgb(194,227,211)" text-rendering="geometricPrecision" font-family="'Noto Sans'" stroke-linejoin="round" stroke="rgb(194,227,211)" font-weight="bold"><rect x="528" width="10" height="105" y="221" clip-path="url(#clipPath3)" stroke="none"/><rect x="528" y="221" clip-path="url(#clipPath3)" fill="none" width="10" height="105" stroke="rgb(61,102,82)"/><rect x="528" width="10" height="247" y="620" clip-path="url(#clipPath3)" stroke="none"/><rect x="528" y="620" clip-path="url(#clipPath3)" fill="none" width="10" height="247" stroke="rgb(61,102,82)"/><rect x="528" y="867" clip-path="url(#clipPath3)" fill="none" width="10" height="1" stroke="rgb(61,102,82)"/><rect x="42" y="644" clip-path="url(#clipPath3)" fill="none" width="606" height="216" stroke="rgb(66,66,66)"/><polygon fill="none" clip-path="url(#clipPath3)" points=" 109 644 109 684 106 687 42 687 42 644" stroke="rgb(66,66,66)"/><text x="48" y="727.0699" clip-path="url(#clipPath3)" fill="black" stroke="none" font-weight="normal" space="preserve">[instrumentName</text><text x="48" y="767.9299" clip-path="url(#clipPath3)" fill="black" stroke="none" font-weight="normal" space="preserve">is part of Config]</text><text fill="black" x="51" space="preserve" y="679.0699" clip-path="url(#clipPath3)" stroke="none">opt</text><circle fill="none" r="3" clip-path="url(#clipPath3)" cx="309" cy="644" stroke="rgb(66,66,66)"/><circle fill="white" r="2" clip-path="url(#clipPath3)" cx="309" cy="644" stroke="none"/><circle fill="none" r="3" clip-path="url(#clipPath3)" cx="533" cy="644" stroke="rgb(66,66,66)"/><circle fill="white" r="2" clip-path="url(#clipPath3)" cx="533" cy="644" stroke="none"/><polygon fill="rgb(66,66,66)" clip-path="url(#clipPath3)" points=" 505 209 528 221 505 233" stroke="none"/><polygon fill="none" clip-path="url(#clipPath3)" points=" 505 209 528 221 505 233" stroke="rgb(66,66,66)"/><path fill="none" d="M528 221 L314 221" clip-path="url(#clipPath3)" stroke="rgb(66,66,66)"/><text x="352" y="200.07" clip-path="url(#clipPath3)" fill="black" stroke="none" font-weight="normal" space="preserve">Registration</text><text x="318" y="200.07" clip-path="url(#clipPath3)" fill="black" stroke="none" font-weight="normal" space="preserve">1: </text><path fill="none" d="M747 404 L770 416 L747 428" clip-path="url(#clipPath3)" stroke="rgb(66,66,66)"/></g><g stroke-linecap="butt" font-size="30" transform="matrix(2,0,0,2,-0,0)" fill="rgb(66,66,66)" text-rendering="geometricPrecision" font-family="'Noto Sans'" stroke-linejoin="round" stroke-dasharray="10" stroke="rgb(66,66,66)"><path fill="none" d="M770 416 L314 416" clip-path="url(#clipPath3)"/><text x="356" y="405.07" clip-path="url(#clipPath3)" fill="black" stroke-dasharray="none" stroke="none" space="preserve">Create Tab</text><text x="322" y="405.07" clip-path="url(#clipPath3)" fill="black" stroke-dasharray="none" stroke="none" space="preserve">3: </text><path fill="none" stroke-dasharray="none" d="M847 499 L870 511 L847 523" clip-path="url(#clipPath3)"/><path fill="none" stroke-dasharray="none" d="M870 511 L314 511" clip-path="url(#clipPath3)"/><text x="356" y="452.07" clip-path="url(#clipPath3)" fill="black" stroke-dasharray="none" stroke="none" space="preserve">Visit</text><text x="356" y="492.93" clip-path="url(#clipPath3)" fill="black" stroke-dasharray="none" stroke="none" space="preserve">Webpage</text><text x="322" y="452.07" clip-path="url(#clipPath3)" fill="black" stroke-dasharray="none" stroke="none" space="preserve">4: </text><path fill="none" stroke-dasharray="none" d="M505 736 L528 748 L505 760" clip-path="url(#clipPath3)"/><path fill="none" d="M528 748 L314 748" clip-path="url(#clipPath3)"/><path fill="none" stroke-dasharray="none" d="M852 926 L875 938 L852 950" clip-path="url(#clipPath3)"/><path fill="none" stroke-dasharray="none" d="M875 938 L314 938" clip-path="url(#clipPath3)"/><text x="373" y="921.0699" clip-path="url(#clipPath3)" fill="black" stroke-dasharray="none" stroke="none" space="preserve">Close Tab</text><text x="322" y="921.0699" clip-path="url(#clipPath3)" fill="black" stroke-dasharray="none" stroke="none" space="preserve">11: </text><polygon stroke-dasharray="none" clip-path="url(#clipPath3)" points=" 711 607 688 595 711 583" stroke="none"/><polygon fill="none" stroke-dasharray="none" clip-path="url(#clipPath3)" points=" 711 607 688 595 711 583"/><path fill="none" stroke-dasharray="none" d="M688 595 L870 595" clip-path="url(#clipPath3)"/><text x="741" y="549.0699" clip-path="url(#clipPath3)" fill="black" stroke-dasharray="none" stroke="none" space="preserve">Call to</text><text x="741" y="589.9299" clip-path="url(#clipPath3)" fill="black" stroke-dasharray="none" stroke="none" space="preserve">WebAPI</text><text x="707" y="549.0699" clip-path="url(#clipPath3)" fill="black" stroke-dasharray="none" stroke="none" space="preserve">5: </text><path fill="none" stroke-dasharray="none" d="M561 632 L538 620 L561 608" clip-path="url(#clipPath3)"/><path fill="none" stroke-dasharray="none" d="M538 620 L678 620" clip-path="url(#clipPath3)"/><text x="585" y="569.0699" clip-path="url(#clipPath3)" fill="black" stroke-dasharray="none" stroke="none" space="preserve">Send</text><text x="585" y="609.9299" clip-path="url(#clipPath3)" fill="black" stroke-dasharray="none" stroke="none" space="preserve">Event</text><text x="551" y="569.0699" clip-path="url(#clipPath3)" fill="black" stroke-dasharray="none" stroke="none" space="preserve">6: </text><path fill="none" stroke-dasharray="none" d="M847 862 L870 874 L847 886" clip-path="url(#clipPath3)"/><path fill="none" d="M870 874 L688 874" clip-path="url(#clipPath3)"/><text x="741" y="823.0699" clip-path="url(#clipPath3)" fill="black" stroke-dasharray="none" stroke="none" space="preserve">WebAPI</text><text x="741" y="863.9299" clip-path="url(#clipPath3)" fill="black" stroke-dasharray="none" stroke="none" space="preserve">returns</text><text x="690" y="823.0699" clip-path="url(#clipPath3)" fill="black" stroke-dasharray="none" stroke="none" space="preserve">10: </text><path fill="none" stroke-dasharray="none" d="M337 338 L314 326 L337 314" clip-path="url(#clipPath3)"/><path fill="none" d="M314 326 L528 326" clip-path="url(#clipPath3)"/><text x="352" y="275.07" clip-path="url(#clipPath3)" fill="black" stroke-dasharray="none" stroke="none" space="preserve">Registration</text><text x="352" y="315.93" clip-path="url(#clipPath3)" fill="black" stroke-dasharray="none" stroke="none" space="preserve"> completed</text><text x="318" y="275.07" clip-path="url(#clipPath3)" fill="black" stroke-dasharray="none" stroke="none" space="preserve">2: </text><path fill="none" stroke-dasharray="none" d="M655 855 L678 867 L655 879" clip-path="url(#clipPath3)"/><path fill="none" d="M678 867 L538 867" clip-path="url(#clipPath3)"/><polygon stroke-dasharray="none" clip-path="url(#clipPath3)" points=" 337 746 314 734 337 722" stroke="none"/><polygon fill="none" stroke-dasharray="none" clip-path="url(#clipPath3)" points=" 337 746 314 734 337 722"/><path fill="none" stroke-dasharray="none" d="M314 734 L528 734" clip-path="url(#clipPath3)"/><text x="363" y="683.0699" clip-path="url(#clipPath3)" fill="black" stroke-dasharray="none" stroke="none" space="preserve">Callback</text><text x="363" y="723.9299" clip-path="url(#clipPath3)" fill="black" stroke-dasharray="none" stroke="none" space="preserve">with Event</text><text x="329" y="683.0699" clip-path="url(#clipPath3)" fill="black" stroke-dasharray="none" stroke="none" space="preserve">7: </text></g></g></svg>